<svg width="150" height="57" viewBox="0 0 150 57" fill="none" xmlns="http://www.w3.org/2000/svg">
<path d="M51.2716 1.944C51.4156 1.608 51.6236 1.36 51.8956 1.2C52.1676 1.024 52.4716 0.935999 52.8076 0.935999C53.2876 0.935999 53.7196 1.096 54.1036 1.416C54.4876 1.736 54.6796 2.128 54.6796 2.592C54.6796 2.832 54.6236 3.072 54.5116 3.312L48.0316 16.992C47.8556 17.36 47.5916 17.648 47.2396 17.856C46.8876 18.048 46.5036 18.144 46.0876 18.144C45.6716 18.144 45.2876 18.048 44.9356 17.856C44.5836 17.648 44.3196 17.36 44.1436 16.992L37.6636 3.312C37.5516 3.088 37.4956 2.856 37.4956 2.616C37.4956 2.136 37.6956 1.736 38.0956 1.416C38.4956 1.096 38.9436 0.935999 39.4396 0.935999C39.7756 0.935999 40.0796 1.024 40.3516 1.2C40.6396 1.36 40.8556 1.608 40.9996 1.944L46.1356 13.176L51.2716 1.944ZM59.0129 18.144C58.4849 18.144 58.0449 18 57.6929 17.712C57.3569 17.424 57.1889 17 57.1889 16.44V7.68C57.1889 7.12 57.3649 6.696 57.7169 6.408C58.0689 6.12 58.5009 5.976 59.0129 5.976C59.5249 5.976 59.9489 6.12 60.2849 6.408C60.6369 6.696 60.8129 7.12 60.8129 7.68V16.44C60.8129 17 60.6369 17.424 60.2849 17.712C59.9489 18 59.5249 18.144 59.0129 18.144ZM59.0129 4.056C58.3729 4.056 57.8689 3.896 57.5009 3.576C57.1329 3.24 56.9489 2.792 56.9489 2.232C56.9489 1.672 57.1329 1.232 57.5009 0.912C57.8689 0.591999 58.3729 0.431999 59.0129 0.431999C59.6369 0.431999 60.1329 0.599999 60.5009 0.935999C60.8849 1.256 61.0769 1.688 61.0769 2.232C61.0769 2.792 60.8929 3.24 60.5249 3.576C60.1569 3.896 59.6529 4.056 59.0129 4.056ZM65.4113 18.144C64.8833 18.144 64.4433 18 64.0913 17.712C63.7553 17.424 63.5873 17 63.5873 16.44V2.664C63.5873 2.104 63.7553 1.68 64.0913 1.392C64.4433 1.104 64.8833 0.959999 65.4113 0.959999C65.9233 0.959999 66.3473 1.104 66.6833 1.392C67.0353 1.68 67.2113 2.104 67.2113 2.664V16.44C67.2113 17 67.0353 17.424 66.6833 17.712C66.3473 18 65.9233 18.144 65.4113 18.144ZM75.2898 5.928C77.0178 5.928 78.2978 6.352 79.1298 7.2C79.9618 8.032 80.3778 9.312 80.3778 11.04V16.464C80.3778 16.992 80.2258 17.408 79.9218 17.712C79.6178 18 79.1938 18.144 78.6498 18.144C78.1378 18.144 77.7218 17.992 77.4018 17.688C77.0978 17.368 76.9458 16.96 76.9458 16.464V16.296C76.7058 16.888 76.3058 17.352 75.7458 17.688C75.1858 18.024 74.5298 18.192 73.7778 18.192C72.9778 18.192 72.2498 18.032 71.5938 17.712C70.9538 17.392 70.4418 16.944 70.0578 16.368C69.6898 15.792 69.5058 15.152 69.5058 14.448C69.5058 13.584 69.7218 12.904 70.1538 12.408C70.6018 11.912 71.3138 11.552 72.2898 11.328C73.2658 11.104 74.6018 10.992 76.2978 10.992H76.9218V10.56C76.9218 9.888 76.7698 9.4 76.4658 9.096C76.1778 8.792 75.6898 8.64 75.0018 8.64C74.3138 8.64 73.3218 8.88 72.0258 9.36C71.6578 9.536 71.3458 9.624 71.0898 9.624C70.7378 9.624 70.4578 9.504 70.2498 9.264C70.0418 9.008 69.9378 8.68 69.9378 8.28C69.9378 7.96 70.0098 7.696 70.1538 7.488C70.2978 7.28 70.5298 7.088 70.8498 6.912C71.4098 6.608 72.0898 6.368 72.8898 6.192C73.7058 6.016 74.5058 5.928 75.2898 5.928ZM74.5698 15.696C75.2738 15.696 75.8418 15.464 76.2738 15C76.7058 14.52 76.9218 13.904 76.9218 13.152V12.744H76.5138C75.2178 12.744 74.3058 12.848 73.7778 13.056C73.2658 13.264 73.0098 13.64 73.0098 14.184C73.0098 14.632 73.1538 15 73.4418 15.288C73.7458 15.56 74.1218 15.696 74.5698 15.696ZM102.318 1.944C102.462 1.608 102.67 1.36 102.942 1.2C103.214 1.024 103.518 0.935999 103.854 0.935999C104.334 0.935999 104.766 1.096 105.15 1.416C105.534 1.736 105.726 2.128 105.726 2.592C105.726 2.832 105.67 3.072 105.558 3.312L99.0784 16.992C98.9024 17.36 98.6384 17.648 98.2864 17.856C97.9344 18.048 97.5504 18.144 97.1344 18.144C96.7184 18.144 96.3344 18.048 95.9824 17.856C95.6304 17.648 95.3664 17.36 95.1904 16.992L88.7104 3.312C88.5984 3.088 88.5424 2.856 88.5424 2.616C88.5424 2.136 88.7424 1.736 89.1424 1.416C89.5424 1.096 89.9904 0.935999 90.4864 0.935999C90.8224 0.935999 91.1264 1.024 91.3984 1.2C91.6864 1.36 91.9024 1.608 92.0464 1.944L97.1824 13.176L102.318 1.944ZM115.278 14.496C115.598 14.496 115.854 14.624 116.046 14.88C116.254 15.136 116.358 15.464 116.358 15.864C116.358 16.136 116.278 16.392 116.118 16.632C115.958 16.856 115.734 17.048 115.446 17.208C114.902 17.496 114.27 17.736 113.55 17.928C112.83 18.104 112.166 18.192 111.558 18.192C110.278 18.192 109.158 17.944 108.198 17.448C107.254 16.952 106.526 16.248 106.014 15.336C105.502 14.408 105.246 13.32 105.246 12.072C105.246 10.872 105.494 9.808 105.99 8.88C106.486 7.952 107.174 7.232 108.054 6.72C108.934 6.192 109.934 5.928 111.054 5.928C112.126 5.928 113.062 6.168 113.862 6.648C114.678 7.112 115.31 7.784 115.758 8.664C116.206 9.528 116.43 10.544 116.43 11.712C116.43 12.064 116.342 12.336 116.166 12.528C116.006 12.704 115.774 12.792 115.47 12.792H108.75C108.862 13.736 109.15 14.424 109.614 14.856C110.078 15.272 110.742 15.48 111.606 15.48C112.07 15.48 112.486 15.424 112.854 15.312C113.222 15.2 113.63 15.048 114.078 14.856C114.302 14.76 114.518 14.68 114.726 14.616C114.934 14.536 115.118 14.496 115.278 14.496ZM111.15 8.424C110.462 8.424 109.91 8.648 109.494 9.096C109.078 9.528 108.83 10.16 108.75 10.992H113.382C113.334 10.144 113.118 9.504 112.734 9.072C112.366 8.64 111.838 8.424 111.15 8.424ZM120.443 18.144C119.915 18.144 119.475 18 119.123 17.712C118.787 17.424 118.619 17 118.619 16.44V2.664C118.619 2.104 118.787 1.68 119.123 1.392C119.475 1.104 119.915 0.959999 120.443 0.959999C120.955 0.959999 121.379 1.104 121.715 1.392C122.067 1.68 122.243 2.104 122.243 2.664V16.44C122.243 17 122.067 17.424 121.715 17.712C121.379 18 120.955 18.144 120.443 18.144ZM132.481 5.928C135.217 5.928 136.585 7.584 136.585 10.896V16.44C136.585 16.968 136.417 17.384 136.081 17.688C135.761 17.992 135.321 18.144 134.761 18.144C134.201 18.144 133.761 17.992 133.441 17.688C133.121 17.384 132.961 16.968 132.961 16.44V10.848C132.961 10.144 132.809 9.624 132.505 9.288C132.217 8.936 131.761 8.76 131.137 8.76C130.385 8.76 129.777 9 129.313 9.48C128.865 9.96 128.641 10.6 128.641 11.4V16.44C128.641 16.968 128.481 17.384 128.161 17.688C127.841 17.992 127.401 18.144 126.841 18.144C126.281 18.144 125.833 17.992 125.497 17.688C125.177 17.384 125.017 16.968 125.017 16.44V2.616C125.017 2.12 125.185 1.72 125.521 1.416C125.873 1.112 126.329 0.959999 126.889 0.959999C127.417 0.959999 127.841 1.104 128.161 1.392C128.481 1.68 128.641 2.064 128.641 2.544V7.776C129.057 7.168 129.593 6.712 130.249 6.408C130.905 6.088 131.649 5.928 132.481 5.928ZM144.594 5.928C146.322 5.928 147.602 6.352 148.434 7.2C149.266 8.032 149.682 9.312 149.682 11.04V16.464C149.682 16.992 149.53 17.408 149.226 17.712C148.922 18 148.498 18.144 147.954 18.144C147.442 18.144 147.026 17.992 146.706 17.688C146.402 17.368 146.25 16.96 146.25 16.464V16.296C146.01 16.888 145.61 17.352 145.05 17.688C144.49 18.024 143.834 18.192 143.082 18.192C142.282 18.192 141.554 18.032 140.898 17.712C140.258 17.392 139.746 16.944 139.362 16.368C138.994 15.792 138.81 15.152 138.81 14.448C138.81 13.584 139.026 12.904 139.458 12.408C139.906 11.912 140.618 11.552 141.594 11.328C142.57 11.104 143.906 10.992 145.602 10.992H146.226V10.56C146.226 9.888 146.074 9.4 145.77 9.096C145.482 8.792 144.994 8.64 144.306 8.64C143.618 8.64 142.626 8.88 141.33 9.36C140.962 9.536 140.65 9.624 140.394 9.624C140.042 9.624 139.762 9.504 139.554 9.264C139.346 9.008 139.242 8.68 139.242 8.28C139.242 7.96 139.314 7.696 139.458 7.488C139.602 7.28 139.834 7.088 140.154 6.912C140.714 6.608 141.394 6.368 142.194 6.192C143.01 6.016 143.81 5.928 144.594 5.928ZM143.874 15.696C144.578 15.696 145.146 15.464 145.578 15C146.01 14.52 146.226 13.904 146.226 13.152V12.744H145.818C144.522 12.744 143.61 12.848 143.082 13.056C142.57 13.264 142.314 13.64 142.314 14.184C142.314 14.632 142.458 15 142.746 15.288C143.05 15.56 143.426 15.696 143.874 15.696ZM1.59044 52C1.20644 52 0.902438 51.896 0.678438 51.688C0.470438 51.464 0.366438 51.168 0.366438 50.8V36.28C0.366438 35.912 0.470438 35.624 0.678438 35.416C0.902438 35.192 1.20644 35.08 1.59044 35.08H10.4224C10.7904 35.08 11.0704 35.168 11.2624 35.344C11.4704 35.52 11.5744 35.768 11.5744 36.088C11.5744 36.408 11.4704 36.656 11.2624 36.832C11.0704 36.992 10.7904 37.072 10.4224 37.072H2.79044V42.4H9.94244C10.3104 42.4 10.5904 42.488 10.7824 42.664C10.9904 42.84 11.0944 43.088 11.0944 43.408C11.0944 43.728 10.9904 43.976 10.7824 44.152C10.5904 44.328 10.3104 44.416 9.94244 44.416H2.79044V50.008H10.4224C11.1904 50.008 11.5744 50.336 11.5744 50.992C11.5744 51.312 11.4704 51.56 11.2624 51.736C11.0704 51.912 10.7904 52 10.4224 52H1.59044ZM18.1975 52.168C16.5655 52.168 15.2295 51.832 14.1895 51.16C13.9015 50.984 13.6935 50.8 13.5655 50.608C13.4535 50.416 13.3975 50.2 13.3975 49.96C13.3975 49.704 13.4695 49.488 13.6135 49.312C13.7575 49.136 13.9415 49.048 14.1655 49.048C14.3735 49.048 14.7015 49.176 15.1495 49.432C15.6295 49.688 16.0935 49.896 16.5415 50.056C17.0055 50.216 17.5815 50.296 18.2695 50.296C19.0375 50.296 19.6375 50.16 20.0695 49.888C20.5015 49.616 20.7175 49.232 20.7175 48.736C20.7175 48.416 20.6295 48.16 20.4535 47.968C20.2935 47.776 20.0055 47.608 19.5895 47.464C19.1735 47.304 18.5575 47.136 17.7415 46.96C16.3335 46.656 15.3175 46.248 14.6935 45.736C14.0855 45.208 13.7815 44.496 13.7815 43.6C13.7815 42.912 13.9815 42.296 14.3815 41.752C14.7815 41.192 15.3335 40.76 16.0375 40.456C16.7415 40.152 17.5415 40 18.4375 40C19.0775 40 19.7015 40.088 20.3095 40.264C20.9175 40.424 21.4535 40.664 21.9175 40.984C22.4455 41.336 22.7095 41.744 22.7095 42.208C22.7095 42.464 22.6295 42.68 22.4695 42.856C22.3255 43.032 22.1495 43.12 21.9415 43.12C21.7975 43.12 21.6535 43.088 21.5095 43.024C21.3655 42.96 21.1735 42.856 20.9335 42.712C20.5015 42.456 20.0935 42.256 19.7095 42.112C19.3415 41.968 18.8775 41.896 18.3175 41.896C17.6455 41.896 17.1015 42.04 16.6855 42.328C16.2855 42.616 16.0855 43.008 16.0855 43.504C16.0855 43.952 16.2695 44.304 16.6375 44.56C17.0215 44.8 17.7335 45.032 18.7735 45.256C19.8455 45.48 20.6855 45.736 21.2935 46.024C21.9015 46.312 22.3335 46.672 22.5895 47.104C22.8615 47.52 22.9975 48.056 22.9975 48.712C22.9975 49.752 22.5575 50.592 21.6775 51.232C20.8135 51.856 19.6535 52.168 18.1975 52.168ZM31.9836 40C32.9916 40 33.8876 40.256 34.6716 40.768C35.4716 41.28 36.0876 42 36.5196 42.928C36.9676 43.856 37.1916 44.928 37.1916 46.144C37.1916 47.344 36.9756 48.4 36.5436 49.312C36.1116 50.224 35.4956 50.928 34.6956 51.424C33.9116 51.92 33.0076 52.168 31.9836 52.168C31.1036 52.168 30.3276 51.984 29.6556 51.616C28.9836 51.232 28.4716 50.688 28.1196 49.984V55.336C28.1196 55.672 28.0076 55.936 27.7836 56.128C27.5756 56.336 27.2956 56.44 26.9436 56.44C26.5756 56.44 26.2716 56.336 26.0316 56.128C25.8076 55.92 25.6956 55.64 25.6956 55.288V41.224C25.6956 40.872 25.8076 40.592 26.0316 40.384C26.2556 40.16 26.5516 40.048 26.9196 40.048C27.2716 40.048 27.5596 40.16 27.7836 40.384C28.0076 40.592 28.1196 40.872 28.1196 41.224V42.208C28.4716 41.504 28.9836 40.96 29.6556 40.576C30.3276 40.192 31.1036 40 31.9836 40ZM31.4076 50.248C32.4636 50.248 33.2796 49.896 33.8556 49.192C34.4316 48.472 34.7196 47.456 34.7196 46.144C34.7196 44.816 34.4236 43.784 33.8316 43.048C33.2556 42.312 32.4476 41.944 31.4076 41.944C30.3516 41.944 29.5356 42.304 28.9596 43.024C28.3996 43.744 28.1196 44.768 28.1196 46.096C28.1196 47.424 28.3996 48.448 28.9596 49.168C29.5356 49.888 30.3516 50.248 31.4076 50.248ZM41.0993 52.12C40.7473 52.12 40.4513 52.024 40.2113 51.832C39.9873 51.64 39.8753 51.352 39.8753 50.968V41.224C39.8753 40.84 39.9873 40.552 40.2113 40.36C40.4513 40.152 40.7473 40.048 41.0993 40.048C41.4513 40.048 41.7393 40.152 41.9633 40.36C42.1873 40.552 42.2993 40.84 42.2993 41.224V50.968C42.2993 51.352 42.1873 51.64 41.9633 51.832C41.7393 52.024 41.4513 52.12 41.0993 52.12ZM41.6033 38.704C41.4753 38.816 41.3233 38.872 41.1473 38.872C40.9713 38.872 40.8113 38.808 40.6673 38.68C40.5393 38.552 40.4753 38.4 40.4753 38.224C40.4753 38.064 40.5313 37.92 40.6433 37.792L43.2353 34.408C43.5553 33.976 43.9233 33.76 44.3393 33.76C44.6433 33.76 44.8993 33.864 45.1073 34.072C45.3153 34.28 45.4193 34.528 45.4193 34.816C45.4193 35.184 45.2273 35.528 44.8433 35.848L41.6033 38.704ZM51.8318 40.048C52.5998 40 52.9838 40.328 52.9838 41.032C52.9838 41.384 52.8958 41.648 52.7198 41.824C52.5438 42 52.2398 42.104 51.8078 42.136L51.0878 42.208C50.0798 42.304 49.3278 42.656 48.8318 43.264C48.3518 43.872 48.1118 44.608 48.1118 45.472V50.968C48.1118 51.352 47.9998 51.64 47.7758 51.832C47.5518 52.024 47.2638 52.12 46.9118 52.12C46.5598 52.12 46.2638 52.024 46.0238 51.832C45.7998 51.64 45.6878 51.352 45.6878 50.968V41.2C45.6878 40.832 45.7998 40.552 46.0238 40.36C46.2638 40.152 46.5598 40.048 46.9118 40.048C47.2318 40.048 47.4958 40.152 47.7038 40.36C47.9278 40.552 48.0398 40.824 48.0398 41.176V42.328C48.3598 41.624 48.8238 41.088 49.4318 40.72C50.0398 40.352 50.7278 40.136 51.4958 40.072L51.8318 40.048ZM55.7009 52.12C55.3489 52.12 55.0529 52.024 54.8129 51.832C54.5889 51.64 54.4769 51.352 54.4769 50.968V41.224C54.4769 40.84 54.5889 40.552 54.8129 40.36C55.0529 40.152 55.3489 40.048 55.7009 40.048C56.0529 40.048 56.3409 40.152 56.5649 40.36C56.7889 40.552 56.9009 40.84 56.9009 41.224V50.968C56.9009 51.352 56.7889 51.64 56.5649 51.832C56.3409 52.024 56.0529 52.12 55.7009 52.12ZM55.7009 37.696C55.2369 37.696 54.8689 37.568 54.5969 37.312C54.3249 37.056 54.1889 36.72 54.1889 36.304C54.1889 35.888 54.3249 35.56 54.5969 35.32C54.8689 35.064 55.2369 34.936 55.7009 34.936C56.1489 34.936 56.5089 35.064 56.7809 35.32C57.0689 35.56 57.2129 35.888 57.2129 36.304C57.2129 36.72 57.0769 37.056 56.8049 37.312C56.5329 37.568 56.1649 37.696 55.7009 37.696ZM66.3535 50.272C66.7055 50.304 66.9535 50.4 67.0975 50.56C67.2575 50.704 67.3375 50.912 67.3375 51.184C67.3375 51.504 67.2095 51.752 66.9535 51.928C66.7135 52.088 66.3535 52.152 65.8735 52.12L65.2255 52.072C63.9295 51.976 62.9615 51.584 62.3215 50.896C61.6815 50.192 61.3615 49.16 61.3615 47.8V42.16H59.9215C59.2175 42.16 58.8655 41.848 58.8655 41.224C58.8655 40.936 58.9535 40.712 59.1295 40.552C59.3215 40.376 59.5855 40.288 59.9215 40.288H61.3615V37.816C61.3615 37.448 61.4655 37.16 61.6735 36.952C61.8975 36.744 62.1935 36.64 62.5615 36.64C62.9295 36.64 63.2255 36.744 63.4495 36.952C63.6735 37.16 63.7855 37.448 63.7855 37.816V40.288H66.1615C66.4975 40.288 66.7535 40.376 66.9295 40.552C67.1215 40.712 67.2175 40.936 67.2175 41.224C67.2175 41.528 67.1215 41.76 66.9295 41.92C66.7535 42.08 66.4975 42.16 66.1615 42.16H63.7855V47.968C63.7855 48.72 63.9375 49.272 64.2415 49.624C64.5615 49.976 65.0415 50.176 65.6815 50.224L66.3535 50.272ZM74.1664 52.168C73.0144 52.168 71.9984 51.92 71.1184 51.424C70.2544 50.928 69.5824 50.224 69.1024 49.312C68.6384 48.384 68.4064 47.312 68.4064 46.096C68.4064 44.864 68.6384 43.792 69.1024 42.88C69.5824 41.952 70.2544 41.24 71.1184 40.744C71.9984 40.248 73.0144 40 74.1664 40C75.3184 40 76.3264 40.248 77.1904 40.744C78.0704 41.24 78.7424 41.952 79.2064 42.88C79.6864 43.792 79.9264 44.864 79.9264 46.096C79.9264 47.312 79.6864 48.384 79.2064 49.312C78.7424 50.224 78.0704 50.928 77.1904 51.424C76.3264 51.92 75.3184 52.168 74.1664 52.168ZM74.1664 50.248C75.2384 50.248 76.0544 49.896 76.6144 49.192C77.1904 48.488 77.4784 47.456 77.4784 46.096C77.4784 44.752 77.1904 43.728 76.6144 43.024C76.0384 42.304 75.2224 41.944 74.1664 41.944C73.1104 41.944 72.2944 42.304 71.7184 43.024C71.1424 43.728 70.8544 44.752 70.8544 46.096C70.8544 47.456 71.1344 48.488 71.6944 49.192C72.2704 49.896 73.0944 50.248 74.1664 50.248ZM94.8334 52.192C93.6174 52.192 92.4574 52.024 91.3534 51.688C90.2654 51.352 89.3934 50.888 88.7374 50.296C88.4334 50.04 88.2814 49.712 88.2814 49.312C88.2814 49.024 88.3614 48.784 88.5214 48.592C88.6814 48.384 88.8734 48.28 89.0974 48.28C89.3214 48.28 89.5934 48.384 89.9134 48.592C91.3374 49.648 92.9614 50.176 94.7854 50.176C96.0654 50.176 97.0494 49.936 97.7374 49.456C98.4254 48.976 98.7694 48.288 98.7694 47.392C98.7694 46.688 98.4494 46.16 97.8094 45.808C97.1694 45.456 96.1454 45.12 94.7374 44.8C93.3934 44.512 92.2894 44.184 91.4254 43.816C90.5614 43.448 89.8814 42.952 89.3854 42.328C88.9054 41.688 88.6654 40.88 88.6654 39.904C88.6654 38.928 88.9294 38.064 89.4574 37.312C90.0014 36.544 90.7534 35.952 91.7134 35.536C92.6734 35.104 93.7694 34.888 95.0014 34.888C96.1374 34.888 97.1854 35.048 98.1454 35.368C99.1054 35.688 99.9214 36.16 100.593 36.784C100.913 37.056 101.073 37.384 101.073 37.768C101.073 38.04 100.985 38.28 100.809 38.488C100.649 38.696 100.457 38.8 100.233 38.8C100.025 38.8 99.7614 38.696 99.4414 38.488C98.7054 37.928 98.0094 37.528 97.3534 37.288C96.7134 37.032 95.9374 36.904 95.0254 36.904C93.7934 36.904 92.8334 37.16 92.1454 37.672C91.4574 38.168 91.1134 38.864 91.1134 39.76C91.1134 40.528 91.4174 41.112 92.0254 41.512C92.6334 41.896 93.6094 42.248 94.9534 42.568C96.3614 42.888 97.4974 43.224 98.3614 43.576C99.2414 43.912 99.9374 44.384 100.449 44.992C100.977 45.584 101.241 46.352 101.241 47.296C101.241 48.256 100.969 49.112 100.425 49.864C99.8974 50.6 99.1454 51.176 98.1694 51.592C97.2094 51.992 96.0974 52.192 94.8334 52.192ZM108.92 40C110.472 40 111.624 40.392 112.376 41.176C113.144 41.96 113.528 43.152 113.528 44.752V50.968C113.528 51.336 113.424 51.624 113.216 51.832C113.008 52.024 112.72 52.12 112.352 52.12C112 52.12 111.72 52.016 111.512 51.808C111.304 51.6 111.2 51.32 111.2 50.968V50.08C110.896 50.752 110.44 51.272 109.832 51.64C109.24 51.992 108.544 52.168 107.744 52.168C106.976 52.168 106.272 52.016 105.632 51.712C105.008 51.392 104.512 50.96 104.144 50.416C103.776 49.872 103.592 49.256 103.592 48.568C103.576 47.704 103.792 47.032 104.24 46.552C104.688 46.056 105.416 45.704 106.424 45.496C107.432 45.272 108.832 45.16 110.624 45.16H111.176V44.464C111.176 43.568 110.992 42.92 110.624 42.52C110.256 42.12 109.664 41.92 108.848 41.92C108.288 41.92 107.76 41.992 107.264 42.136C106.768 42.28 106.224 42.488 105.632 42.76C105.2 43 104.896 43.12 104.72 43.12C104.48 43.12 104.28 43.032 104.12 42.856C103.976 42.68 103.904 42.456 103.904 42.184C103.904 41.944 103.968 41.736 104.096 41.56C104.24 41.368 104.464 41.184 104.768 41.008C105.328 40.704 105.984 40.464 106.736 40.288C107.488 40.096 108.216 40 108.92 40ZM108.176 50.368C109.056 50.368 109.776 50.072 110.336 49.48C110.896 48.872 111.176 48.096 111.176 47.152V46.528H110.744C109.496 46.528 108.536 46.584 107.864 46.696C107.192 46.808 106.712 47 106.424 47.272C106.136 47.528 105.992 47.904 105.992 48.4C105.992 48.976 106.2 49.448 106.616 49.816C107.032 50.184 107.552 50.368 108.176 50.368ZM123.156 40C125.956 40 127.356 41.576 127.356 44.728V50.968C127.356 51.336 127.244 51.624 127.02 51.832C126.812 52.024 126.516 52.12 126.132 52.12C125.764 52.12 125.468 52.016 125.244 51.808C125.036 51.6 124.932 51.32 124.932 50.968V44.848C124.932 43.856 124.732 43.128 124.332 42.664C123.948 42.2 123.34 41.968 122.508 41.968C121.532 41.968 120.748 42.272 120.156 42.88C119.564 43.488 119.268 44.304 119.268 45.328V50.968C119.268 51.32 119.156 51.6 118.932 51.808C118.724 52.016 118.436 52.12 118.068 52.12C117.7 52.12 117.404 52.016 117.18 51.808C116.956 51.6 116.844 51.32 116.844 50.968V41.2C116.844 40.864 116.956 40.592 117.18 40.384C117.42 40.16 117.716 40.048 118.068 40.048C118.42 40.048 118.7 40.152 118.908 40.36C119.116 40.568 119.22 40.84 119.22 41.176V42.16C119.604 41.456 120.14 40.92 120.828 40.552C121.516 40.184 122.292 40 123.156 40ZM136.408 50.272C136.76 50.304 137.008 50.4 137.152 50.56C137.312 50.704 137.392 50.912 137.392 51.184C137.392 51.504 137.264 51.752 137.008 51.928C136.768 52.088 136.408 52.152 135.928 52.12L135.28 52.072C133.984 51.976 133.016 51.584 132.376 50.896C131.736 50.192 131.416 49.16 131.416 47.8V42.16H129.976C129.272 42.16 128.92 41.848 128.92 41.224C128.92 40.936 129.008 40.712 129.184 40.552C129.376 40.376 129.64 40.288 129.976 40.288H131.416V37.816C131.416 37.448 131.52 37.16 131.728 36.952C131.952 36.744 132.248 36.64 132.616 36.64C132.984 36.64 133.28 36.744 133.504 36.952C133.728 37.16 133.84 37.448 133.84 37.816V40.288H136.216C136.552 40.288 136.808 40.376 136.984 40.552C137.176 40.712 137.272 40.936 137.272 41.224C137.272 41.528 137.176 41.76 136.984 41.92C136.808 42.08 136.552 42.16 136.216 42.16H133.84V47.968C133.84 48.72 133.992 49.272 134.296 49.624C134.616 49.976 135.096 50.176 135.736 50.224L136.408 50.272ZM144.221 52.168C143.069 52.168 142.053 51.92 141.173 51.424C140.309 50.928 139.637 50.224 139.157 49.312C138.693 48.384 138.461 47.312 138.461 46.096C138.461 44.864 138.693 43.792 139.157 42.88C139.637 41.952 140.309 41.24 141.173 40.744C142.053 40.248 143.069 40 144.221 40C145.373 40 146.381 40.248 147.245 40.744C148.125 41.24 148.797 41.952 149.261 42.88C149.741 43.792 149.981 44.864 149.981 46.096C149.981 47.312 149.741 48.384 149.261 49.312C148.797 50.224 148.125 50.928 147.245 51.424C146.381 51.92 145.373 52.168 144.221 52.168ZM144.221 50.248C145.293 50.248 146.109 49.896 146.669 49.192C147.245 48.488 147.533 47.456 147.533 46.096C147.533 44.752 147.245 43.728 146.669 43.024C146.093 42.304 145.277 41.944 144.221 41.944C143.165 41.944 142.349 42.304 141.773 43.024C141.197 43.728 140.909 44.752 140.909 46.096C140.909 47.456 141.189 48.488 141.749 49.192C142.325 49.896 143.149 50.248 144.221 50.248Z" fill="white"/>
</svg>
